<?xml version="1.0" encoding="utf-8"?>
<!-- Generator: Adobe Illustrator 16.0.0, SVG Export Plug-In . SVG Version: 6.00 Build 0)  -->
<!DOCTYPE svg PUBLIC "-//W3C//DTD SVG 1.1//EN" "http://www.w3.org/Graphics/SVG/1.1/DTD/svg11.dtd">
<svg version="1.1" id="圖層_1" xmlns="http://www.w3.org/2000/svg" xmlns:xlink="http://www.w3.org/1999/xlink" x="0px" y="0px"
	 width="283.46px" height="283.46px" viewBox="0 0 283.46 283.46" enable-background="new 0 0 283.46 283.46" xml:space="preserve">
<radialGradient id="SVGID_1_" cx="163.918" cy="170.7822" r="81.0963" gradientUnits="userSpaceOnUse">
	<stop  offset="0" style="stop-color:#FFFFFF"/>
	<stop  offset="0.0394" style="stop-color:#E9F6EE"/>
	<stop  offset="0.1469" style="stop-color:#B3DEC4"/>
	<stop  offset="0.2585" style="stop-color:#83CA9F"/>
	<stop  offset="0.3719" style="stop-color:#5BB880"/>
	<stop  offset="0.4872" style="stop-color:#3AAA67"/>
	<stop  offset="0.6052" style="stop-color:#209F53"/>
	<stop  offset="0.7272" style="stop-color:#0E9745"/>
	<stop  offset="0.8553" style="stop-color:#04933D"/>
	<stop  offset="1" style="stop-color:#00913A"/>
</radialGradient>
<path fill="url(#SVGID_1_)" d="M96.79,263.737c0,0-0.009-0.312-0.027-0.916c-0.005-0.533-0.012-1.324-0.021-2.357
	c-0.001-2.012,0.029-4.883,0.156-8.49c0.251-7.216,0.854-17.394,2.339-29.509c1.489-12.107,3.839-26.17,7.757-40.981
	c1.956-7.402,4.288-14.989,7.142-22.559c2.831-7.569,6.156-15.129,10.086-22.414c3.89-7.293,8.411-14.302,13.504-20.718
	c5.054-6.438,10.778-12.213,16.832-17.105c6.044-4.908,12.462-8.882,18.845-11.855c6.375-2.998,12.673-5.043,18.534-6.416
	c5.872-1.366,11.319-1.974,16.109-2.354c4.807-0.28,8.972-0.287,12.386-0.139c1.703,0.089,3.224,0.168,4.547,0.238
	c1.315,0.129,2.435,0.239,3.343,0.328c1.809,0.178,2.772,0.273,2.772,0.273l-0.045,1.171c0,0-0.96,0.063-2.758,0.181
	c-0.896,0.059-2.001,0.131-3.3,0.217c-1.292,0.145-2.776,0.311-4.438,0.497c-3.313,0.399-7.306,1.069-11.79,2.079
	c-4.463,1.108-9.434,2.513-14.575,4.641c-5.133,2.134-10.447,4.901-15.578,8.439c-5.143,3.516-10.064,7.839-14.499,12.854
	c-4.443,5.004-8.449,10.647-11.818,16.806c-3.401,6.132-6.253,12.704-8.547,19.503c-2.328,6.781-4.118,13.776-5.487,20.761
	c-1.39,6.978-2.333,13.958-2.975,20.748c-1.29,13.584-1.315,26.42-0.858,37.366c0.459,10.954,1.419,20.033,2.231,26.27
	c0.406,3.121,0.781,5.53,1.047,7.115c0.136,0.766,0.24,1.353,0.31,1.748c0.068,0.324,0.104,0.491,0.104,0.491L96.79,263.737z"/>
<linearGradient id="SVGID_2_" gradientUnits="userSpaceOnUse" x1="130.8794" y1="107.79" x2="69.8644" y2="46.4415">
	<stop  offset="0" style="stop-color:#FFFFFF"/>
	<stop  offset="0.0394" style="stop-color:#E9F6EF"/>
	<stop  offset="0.1469" style="stop-color:#B3E1C7"/>
	<stop  offset="0.2585" style="stop-color:#83CEA4"/>
	<stop  offset="0.3719" style="stop-color:#5BBD87"/>
	<stop  offset="0.4872" style="stop-color:#3AB06F"/>
	<stop  offset="0.6052" style="stop-color:#20A65C"/>
	<stop  offset="0.7272" style="stop-color:#0E9F4E"/>
	<stop  offset="0.8553" style="stop-color:#049A47"/>
	<stop  offset="1" style="stop-color:#009944"/>
</linearGradient>
<path fill="url(#SVGID_2_)" d="M70.654,46.243c0,0,0.15-0.031,0.441-0.09c0.288-0.057,0.733-0.158,1.261-0.238
	c0.545-0.097,1.197-0.197,1.935-0.285c0.762-0.112,1.575-0.179,2.496-0.263c0.943-0.106,1.871-0.108,2.944-0.174
	c1.055-0.046,2.113-0.015,3.29-0.026c2.292,0.039,4.731,0.228,7.229,0.598c5,0.736,10.193,2.234,14.958,4.638
	c4.778,2.392,9.131,5.686,12.796,9.668c3.688,3.959,6.791,8.504,9.069,13.395c2.317,4.852,3.803,10.058,4.615,14.981
	c0.4,2.468,0.658,4.839,0.74,7.087c0.051,1.113,0.103,2.152,0.079,3.185c-0.002,0.506-0.004,0.992-0.006,1.456
	c-0.021,0.483-0.041,0.944-0.06,1.381c-0.029,0.866-0.092,1.675-0.162,2.395c-0.051,0.701-0.137,1.339-0.199,1.849
	c-0.053,0.501-0.141,0.933-0.179,1.203c-0.045,0.276-0.068,0.418-0.068,0.418l-1.149,1.149c0,0-0.143,0.023-0.418,0.068
	c-0.27,0.038-0.702,0.126-1.203,0.179c-0.51,0.062-1.148,0.148-1.849,0.199c-0.72,0.07-1.529,0.132-2.395,0.162
	c-0.438,0.019-0.898,0.039-1.381,0.06c-0.464,0.002-0.95,0.004-1.456,0.006c-1.032,0.024-2.071-0.027-3.185-0.079
	c-2.249-0.082-4.62-0.339-7.087-0.739c-4.923-0.812-10.129-2.298-14.981-4.616c-4.891-2.279-9.436-5.381-13.395-9.069
	c-3.982-3.665-7.276-8.019-9.668-12.796c-2.405-4.765-3.902-9.958-4.638-14.958c-0.371-2.498-0.559-4.938-0.598-7.229
	c0.011-1.176-0.021-2.235,0.025-3.29c0.066-1.074,0.067-2.001,0.174-2.944c0.083-0.92,0.15-1.733,0.262-2.496
	c0.088-0.738,0.188-1.39,0.285-1.935c0.08-0.527,0.181-0.973,0.238-1.261c0.06-0.291,0.09-0.441,0.09-0.441L70.654,46.243z"/>
</svg>
